%TF.GenerationSoftware,KiCad,Pcbnew,5.1.4*%
%TF.CreationDate,2019-11-11T17:46:08+01:00*%
%TF.ProjectId,followsun-hardware,666f6c6c-6f77-4737-956e-2d6861726477,rev?*%
%TF.SameCoordinates,Original*%
%TF.FileFunction,Legend,Bot*%
%TF.FilePolarity,Positive*%
%FSLAX46Y46*%
G04 Gerber Fmt 4.6, Leading zero omitted, Abs format (unit mm)*
G04 Created by KiCad (PCBNEW 5.1.4) date 2019-11-11 17:46:08*
%MOMM*%
%LPD*%
G04 APERTURE LIST*
%ADD10C,0.100000*%
%ADD11C,2.502000*%
%ADD12R,2.502000X2.502000*%
%ADD13C,0.902000*%
%ADD14C,6.102000*%
%ADD15R,1.702000X1.702000*%
%ADD16O,1.702000X1.702000*%
%ADD17O,1.802000X1.802000*%
%ADD18R,1.802000X1.802000*%
%ADD19C,3.102000*%
%ADD20R,3.102000X3.102000*%
%ADD21C,2.102000*%
%ADD22O,3.902000X8.102000*%
%ADD23C,2.602000*%
G04 APERTURE END LIST*
D10*
X135139142Y-52938285D02*
X135110571Y-52852571D01*
X135110571Y-52709714D01*
X135139142Y-52652571D01*
X135167714Y-52624000D01*
X135224857Y-52595428D01*
X135282000Y-52595428D01*
X135339142Y-52624000D01*
X135367714Y-52652571D01*
X135396285Y-52709714D01*
X135424857Y-52824000D01*
X135453428Y-52881142D01*
X135482000Y-52909714D01*
X135539142Y-52938285D01*
X135596285Y-52938285D01*
X135653428Y-52909714D01*
X135682000Y-52881142D01*
X135710571Y-52824000D01*
X135710571Y-52681142D01*
X135682000Y-52595428D01*
X135110571Y-52338285D02*
X135710571Y-52338285D01*
X135682000Y-51738285D02*
X135710571Y-51795428D01*
X135710571Y-51881142D01*
X135682000Y-51966857D01*
X135624857Y-52024000D01*
X135567714Y-52052571D01*
X135453428Y-52081142D01*
X135367714Y-52081142D01*
X135253428Y-52052571D01*
X135196285Y-52024000D01*
X135139142Y-51966857D01*
X135110571Y-51881142D01*
X135110571Y-51824000D01*
X135139142Y-51738285D01*
X135167714Y-51709714D01*
X135367714Y-51709714D01*
X135367714Y-51824000D01*
X135682000Y-56083142D02*
X135710571Y-56140285D01*
X135710571Y-56226000D01*
X135682000Y-56311714D01*
X135624857Y-56368857D01*
X135567714Y-56397428D01*
X135453428Y-56426000D01*
X135367714Y-56426000D01*
X135253428Y-56397428D01*
X135196285Y-56368857D01*
X135139142Y-56311714D01*
X135110571Y-56226000D01*
X135110571Y-56168857D01*
X135139142Y-56083142D01*
X135167714Y-56054571D01*
X135367714Y-56054571D01*
X135367714Y-56168857D01*
X135110571Y-55797428D02*
X135710571Y-55797428D01*
X135110571Y-55454571D01*
X135710571Y-55454571D01*
X135110571Y-55168857D02*
X135710571Y-55168857D01*
X135710571Y-55026000D01*
X135682000Y-54940285D01*
X135624857Y-54883142D01*
X135567714Y-54854571D01*
X135453428Y-54826000D01*
X135367714Y-54826000D01*
X135253428Y-54854571D01*
X135196285Y-54883142D01*
X135139142Y-54940285D01*
X135110571Y-55026000D01*
X135110571Y-55168857D01*
X135510571Y-50164857D02*
X135110571Y-50164857D01*
X135739142Y-50307714D02*
X135310571Y-50450571D01*
X135310571Y-50079142D01*
X135167714Y-49850571D02*
X135139142Y-49822000D01*
X135110571Y-49850571D01*
X135139142Y-49879142D01*
X135167714Y-49850571D01*
X135110571Y-49850571D01*
X135710571Y-49450571D02*
X135710571Y-49393428D01*
X135682000Y-49336285D01*
X135653428Y-49307714D01*
X135596285Y-49279142D01*
X135482000Y-49250571D01*
X135339142Y-49250571D01*
X135224857Y-49279142D01*
X135167714Y-49307714D01*
X135139142Y-49336285D01*
X135110571Y-49393428D01*
X135110571Y-49450571D01*
X135139142Y-49507714D01*
X135167714Y-49536285D01*
X135224857Y-49564857D01*
X135339142Y-49593428D01*
X135482000Y-49593428D01*
X135596285Y-49564857D01*
X135653428Y-49536285D01*
X135682000Y-49507714D01*
X135710571Y-49450571D01*
X135110571Y-48964857D02*
X135110571Y-48850571D01*
X135139142Y-48793428D01*
X135167714Y-48764857D01*
X135253428Y-48707714D01*
X135367714Y-48679142D01*
X135596285Y-48679142D01*
X135653428Y-48707714D01*
X135682000Y-48736285D01*
X135710571Y-48793428D01*
X135710571Y-48907714D01*
X135682000Y-48964857D01*
X135653428Y-48993428D01*
X135596285Y-49022000D01*
X135453428Y-49022000D01*
X135396285Y-48993428D01*
X135367714Y-48964857D01*
X135339142Y-48907714D01*
X135339142Y-48793428D01*
X135367714Y-48736285D01*
X135396285Y-48707714D01*
X135453428Y-48679142D01*
X135710571Y-48164857D02*
X135710571Y-48279142D01*
X135682000Y-48336285D01*
X135653428Y-48364857D01*
X135567714Y-48422000D01*
X135453428Y-48450571D01*
X135224857Y-48450571D01*
X135167714Y-48422000D01*
X135139142Y-48393428D01*
X135110571Y-48336285D01*
X135110571Y-48222000D01*
X135139142Y-48164857D01*
X135167714Y-48136285D01*
X135224857Y-48107714D01*
X135367714Y-48107714D01*
X135424857Y-48136285D01*
X135453428Y-48164857D01*
X135482000Y-48222000D01*
X135482000Y-48336285D01*
X135453428Y-48393428D01*
X135424857Y-48422000D01*
X135367714Y-48450571D01*
X135710571Y-47936285D02*
X135110571Y-47736285D01*
X135710571Y-47536285D01*
X135012142Y-65257285D02*
X134983571Y-65171571D01*
X134983571Y-65028714D01*
X135012142Y-64971571D01*
X135040714Y-64943000D01*
X135097857Y-64914428D01*
X135155000Y-64914428D01*
X135212142Y-64943000D01*
X135240714Y-64971571D01*
X135269285Y-65028714D01*
X135297857Y-65143000D01*
X135326428Y-65200142D01*
X135355000Y-65228714D01*
X135412142Y-65257285D01*
X135469285Y-65257285D01*
X135526428Y-65228714D01*
X135555000Y-65200142D01*
X135583571Y-65143000D01*
X135583571Y-65000142D01*
X135555000Y-64914428D01*
X134983571Y-64657285D02*
X135583571Y-64657285D01*
X135555000Y-64057285D02*
X135583571Y-64114428D01*
X135583571Y-64200142D01*
X135555000Y-64285857D01*
X135497857Y-64343000D01*
X135440714Y-64371571D01*
X135326428Y-64400142D01*
X135240714Y-64400142D01*
X135126428Y-64371571D01*
X135069285Y-64343000D01*
X135012142Y-64285857D01*
X134983571Y-64200142D01*
X134983571Y-64143000D01*
X135012142Y-64057285D01*
X135040714Y-64028714D01*
X135240714Y-64028714D01*
X135240714Y-64143000D01*
X135555000Y-68402142D02*
X135583571Y-68459285D01*
X135583571Y-68545000D01*
X135555000Y-68630714D01*
X135497857Y-68687857D01*
X135440714Y-68716428D01*
X135326428Y-68745000D01*
X135240714Y-68745000D01*
X135126428Y-68716428D01*
X135069285Y-68687857D01*
X135012142Y-68630714D01*
X134983571Y-68545000D01*
X134983571Y-68487857D01*
X135012142Y-68402142D01*
X135040714Y-68373571D01*
X135240714Y-68373571D01*
X135240714Y-68487857D01*
X134983571Y-68116428D02*
X135583571Y-68116428D01*
X134983571Y-67773571D01*
X135583571Y-67773571D01*
X134983571Y-67487857D02*
X135583571Y-67487857D01*
X135583571Y-67345000D01*
X135555000Y-67259285D01*
X135497857Y-67202142D01*
X135440714Y-67173571D01*
X135326428Y-67145000D01*
X135240714Y-67145000D01*
X135126428Y-67173571D01*
X135069285Y-67202142D01*
X135012142Y-67259285D01*
X134983571Y-67345000D01*
X134983571Y-67487857D01*
X135383571Y-62483857D02*
X134983571Y-62483857D01*
X135612142Y-62626714D02*
X135183571Y-62769571D01*
X135183571Y-62398142D01*
X135040714Y-62169571D02*
X135012142Y-62141000D01*
X134983571Y-62169571D01*
X135012142Y-62198142D01*
X135040714Y-62169571D01*
X134983571Y-62169571D01*
X135583571Y-61769571D02*
X135583571Y-61712428D01*
X135555000Y-61655285D01*
X135526428Y-61626714D01*
X135469285Y-61598142D01*
X135355000Y-61569571D01*
X135212142Y-61569571D01*
X135097857Y-61598142D01*
X135040714Y-61626714D01*
X135012142Y-61655285D01*
X134983571Y-61712428D01*
X134983571Y-61769571D01*
X135012142Y-61826714D01*
X135040714Y-61855285D01*
X135097857Y-61883857D01*
X135212142Y-61912428D01*
X135355000Y-61912428D01*
X135469285Y-61883857D01*
X135526428Y-61855285D01*
X135555000Y-61826714D01*
X135583571Y-61769571D01*
X134983571Y-61283857D02*
X134983571Y-61169571D01*
X135012142Y-61112428D01*
X135040714Y-61083857D01*
X135126428Y-61026714D01*
X135240714Y-60998142D01*
X135469285Y-60998142D01*
X135526428Y-61026714D01*
X135555000Y-61055285D01*
X135583571Y-61112428D01*
X135583571Y-61226714D01*
X135555000Y-61283857D01*
X135526428Y-61312428D01*
X135469285Y-61341000D01*
X135326428Y-61341000D01*
X135269285Y-61312428D01*
X135240714Y-61283857D01*
X135212142Y-61226714D01*
X135212142Y-61112428D01*
X135240714Y-61055285D01*
X135269285Y-61026714D01*
X135326428Y-60998142D01*
X135583571Y-60483857D02*
X135583571Y-60598142D01*
X135555000Y-60655285D01*
X135526428Y-60683857D01*
X135440714Y-60741000D01*
X135326428Y-60769571D01*
X135097857Y-60769571D01*
X135040714Y-60741000D01*
X135012142Y-60712428D01*
X134983571Y-60655285D01*
X134983571Y-60541000D01*
X135012142Y-60483857D01*
X135040714Y-60455285D01*
X135097857Y-60426714D01*
X135240714Y-60426714D01*
X135297857Y-60455285D01*
X135326428Y-60483857D01*
X135355000Y-60541000D01*
X135355000Y-60655285D01*
X135326428Y-60712428D01*
X135297857Y-60741000D01*
X135240714Y-60769571D01*
X135583571Y-60255285D02*
X134983571Y-60055285D01*
X135583571Y-59855285D01*
X135428000Y-83134142D02*
X135456571Y-83191285D01*
X135456571Y-83277000D01*
X135428000Y-83362714D01*
X135370857Y-83419857D01*
X135313714Y-83448428D01*
X135199428Y-83477000D01*
X135113714Y-83477000D01*
X134999428Y-83448428D01*
X134942285Y-83419857D01*
X134885142Y-83362714D01*
X134856571Y-83277000D01*
X134856571Y-83219857D01*
X134885142Y-83134142D01*
X134913714Y-83105571D01*
X135113714Y-83105571D01*
X135113714Y-83219857D01*
X134856571Y-82848428D02*
X135456571Y-82848428D01*
X134856571Y-82505571D01*
X135456571Y-82505571D01*
X134856571Y-82219857D02*
X135456571Y-82219857D01*
X135456571Y-82077000D01*
X135428000Y-81991285D01*
X135370857Y-81934142D01*
X135313714Y-81905571D01*
X135199428Y-81877000D01*
X135113714Y-81877000D01*
X134999428Y-81905571D01*
X134942285Y-81934142D01*
X134885142Y-81991285D01*
X134856571Y-82077000D01*
X134856571Y-82219857D01*
X134885142Y-79989285D02*
X134856571Y-79903571D01*
X134856571Y-79760714D01*
X134885142Y-79703571D01*
X134913714Y-79675000D01*
X134970857Y-79646428D01*
X135028000Y-79646428D01*
X135085142Y-79675000D01*
X135113714Y-79703571D01*
X135142285Y-79760714D01*
X135170857Y-79875000D01*
X135199428Y-79932142D01*
X135228000Y-79960714D01*
X135285142Y-79989285D01*
X135342285Y-79989285D01*
X135399428Y-79960714D01*
X135428000Y-79932142D01*
X135456571Y-79875000D01*
X135456571Y-79732142D01*
X135428000Y-79646428D01*
X134856571Y-79389285D02*
X135456571Y-79389285D01*
X135428000Y-78789285D02*
X135456571Y-78846428D01*
X135456571Y-78932142D01*
X135428000Y-79017857D01*
X135370857Y-79075000D01*
X135313714Y-79103571D01*
X135199428Y-79132142D01*
X135113714Y-79132142D01*
X134999428Y-79103571D01*
X134942285Y-79075000D01*
X134885142Y-79017857D01*
X134856571Y-78932142D01*
X134856571Y-78875000D01*
X134885142Y-78789285D01*
X134913714Y-78760714D01*
X135113714Y-78760714D01*
X135113714Y-78875000D01*
X135256571Y-77215857D02*
X134856571Y-77215857D01*
X135485142Y-77358714D02*
X135056571Y-77501571D01*
X135056571Y-77130142D01*
X134913714Y-76901571D02*
X134885142Y-76873000D01*
X134856571Y-76901571D01*
X134885142Y-76930142D01*
X134913714Y-76901571D01*
X134856571Y-76901571D01*
X135456571Y-76501571D02*
X135456571Y-76444428D01*
X135428000Y-76387285D01*
X135399428Y-76358714D01*
X135342285Y-76330142D01*
X135228000Y-76301571D01*
X135085142Y-76301571D01*
X134970857Y-76330142D01*
X134913714Y-76358714D01*
X134885142Y-76387285D01*
X134856571Y-76444428D01*
X134856571Y-76501571D01*
X134885142Y-76558714D01*
X134913714Y-76587285D01*
X134970857Y-76615857D01*
X135085142Y-76644428D01*
X135228000Y-76644428D01*
X135342285Y-76615857D01*
X135399428Y-76587285D01*
X135428000Y-76558714D01*
X135456571Y-76501571D01*
X134856571Y-76015857D02*
X134856571Y-75901571D01*
X134885142Y-75844428D01*
X134913714Y-75815857D01*
X134999428Y-75758714D01*
X135113714Y-75730142D01*
X135342285Y-75730142D01*
X135399428Y-75758714D01*
X135428000Y-75787285D01*
X135456571Y-75844428D01*
X135456571Y-75958714D01*
X135428000Y-76015857D01*
X135399428Y-76044428D01*
X135342285Y-76073000D01*
X135199428Y-76073000D01*
X135142285Y-76044428D01*
X135113714Y-76015857D01*
X135085142Y-75958714D01*
X135085142Y-75844428D01*
X135113714Y-75787285D01*
X135142285Y-75758714D01*
X135199428Y-75730142D01*
X135456571Y-75215857D02*
X135456571Y-75330142D01*
X135428000Y-75387285D01*
X135399428Y-75415857D01*
X135313714Y-75473000D01*
X135199428Y-75501571D01*
X134970857Y-75501571D01*
X134913714Y-75473000D01*
X134885142Y-75444428D01*
X134856571Y-75387285D01*
X134856571Y-75273000D01*
X134885142Y-75215857D01*
X134913714Y-75187285D01*
X134970857Y-75158714D01*
X135113714Y-75158714D01*
X135170857Y-75187285D01*
X135199428Y-75215857D01*
X135228000Y-75273000D01*
X135228000Y-75387285D01*
X135199428Y-75444428D01*
X135170857Y-75473000D01*
X135113714Y-75501571D01*
X135456571Y-74987285D02*
X134856571Y-74787285D01*
X135456571Y-74587285D01*
%LPC*%
D11*
X137922000Y-91587200D03*
D12*
X137922000Y-88087200D03*
D11*
X138023600Y-55514000D03*
X138023600Y-52014000D03*
D12*
X138023600Y-48514000D03*
D11*
X137922000Y-82895200D03*
X137922000Y-79395200D03*
D12*
X137922000Y-75895200D03*
D11*
X137985500Y-68023500D03*
X137985500Y-64523500D03*
D12*
X137985500Y-61023500D03*
D13*
X207076990Y-97088010D03*
X205486000Y-96429000D03*
X203895010Y-97088010D03*
X203236000Y-98679000D03*
X203895010Y-100269990D03*
X205486000Y-100929000D03*
X207076990Y-100269990D03*
X207736000Y-98679000D03*
D14*
X205486000Y-98679000D03*
D13*
X139476990Y-96961010D03*
X137886000Y-96302000D03*
X136295010Y-96961010D03*
X135636000Y-98552000D03*
X136295010Y-100142990D03*
X137886000Y-100802000D03*
X139476990Y-100142990D03*
X140136000Y-98552000D03*
D14*
X137886000Y-98552000D03*
D13*
X207076990Y-38735000D03*
X205486000Y-38075990D03*
X203895010Y-38735000D03*
X203236000Y-40325990D03*
X203895010Y-41916980D03*
X205486000Y-42575990D03*
X207076990Y-41916980D03*
X207736000Y-40325990D03*
D14*
X205486000Y-40325990D03*
D13*
X139766990Y-39049010D03*
X138176000Y-38390000D03*
X136585010Y-39049010D03*
X135926000Y-40640000D03*
X136585010Y-42230990D03*
X138176000Y-42890000D03*
X139766990Y-42230990D03*
X140426000Y-40640000D03*
D14*
X138176000Y-40640000D03*
D15*
X167513000Y-44323000D03*
D16*
X175133000Y-64643000D03*
X167513000Y-46863000D03*
X175133000Y-62103000D03*
X167513000Y-49403000D03*
X175133000Y-59563000D03*
X167513000Y-51943000D03*
X175133000Y-57023000D03*
X167513000Y-54483000D03*
X175133000Y-54483000D03*
X167513000Y-57023000D03*
X175133000Y-51943000D03*
X167513000Y-59563000D03*
X175133000Y-49403000D03*
X167513000Y-62103000D03*
X175133000Y-46863000D03*
X167513000Y-64643000D03*
X175133000Y-44323000D03*
D17*
X169185000Y-76577600D03*
X171725000Y-76577600D03*
X166645000Y-76577600D03*
D18*
X174265000Y-76577600D03*
X143424500Y-95271000D03*
D17*
X143424500Y-87651000D03*
X143424500Y-92731000D03*
X143424500Y-90191000D03*
D19*
X205486000Y-56972200D03*
D20*
X205486000Y-62052200D03*
D19*
X205536800Y-46304200D03*
D20*
X205536800Y-51384200D03*
D21*
X166116000Y-38608000D03*
X173482000Y-38608000D03*
X169672000Y-38608000D03*
X177292000Y-38608000D03*
D19*
X205435200Y-87909400D03*
D20*
X205435200Y-92989400D03*
D22*
X206044800Y-70379800D03*
X206044800Y-79679800D03*
D19*
X180848000Y-93980000D03*
D23*
X182798000Y-88030000D03*
D19*
X195048000Y-87980000D03*
X194998000Y-100030000D03*
D23*
X182798000Y-100030000D03*
D19*
X180848000Y-77724000D03*
D23*
X182798000Y-71774000D03*
D19*
X195048000Y-71724000D03*
X194998000Y-83774000D03*
D23*
X182798000Y-83774000D03*
D19*
X180848000Y-61468000D03*
D23*
X182798000Y-55518000D03*
D19*
X195048000Y-55468000D03*
X194998000Y-67518000D03*
D23*
X182798000Y-67518000D03*
D19*
X180848000Y-45212000D03*
D23*
X182798000Y-39262000D03*
D19*
X195048000Y-39212000D03*
X194998000Y-51262000D03*
D23*
X182798000Y-51262000D03*
D16*
X147129500Y-40386000D03*
X162369500Y-40386000D03*
X147129500Y-75946000D03*
X162369500Y-42926000D03*
X147129500Y-73406000D03*
X162369500Y-45466000D03*
X147129500Y-70866000D03*
X162369500Y-48006000D03*
X147129500Y-68326000D03*
X162369500Y-50546000D03*
X147129500Y-65786000D03*
X162369500Y-53086000D03*
X147129500Y-63246000D03*
X162369500Y-55626000D03*
X147129500Y-60706000D03*
X162369500Y-58166000D03*
X147129500Y-58166000D03*
X162369500Y-60706000D03*
X147129500Y-55626000D03*
X162369500Y-63246000D03*
X147129500Y-53086000D03*
X162369500Y-65786000D03*
X147129500Y-50546000D03*
X162369500Y-68326000D03*
X147129500Y-48006000D03*
X162369500Y-70866000D03*
X147129500Y-45466000D03*
X162369500Y-73406000D03*
X147129500Y-42926000D03*
D15*
X162369500Y-75946000D03*
M02*
