%TF.GenerationSoftware,KiCad,Pcbnew,5.1.4*%
%TF.CreationDate,2019-11-11T17:46:08+01:00*%
%TF.ProjectId,followsun-hardware,666f6c6c-6f77-4737-956e-2d6861726477,rev?*%
%TF.SameCoordinates,Original*%
%TF.FileFunction,Paste,Top*%
%TF.FilePolarity,Positive*%
%FSLAX46Y46*%
G04 Gerber Fmt 4.6, Leading zero omitted, Abs format (unit mm)*
G04 Created by KiCad (PCBNEW 5.1.4) date 2019-11-11 17:46:08*
%MOMM*%
%LPD*%
G04 APERTURE LIST*
%ADD10C,0.100000*%
%ADD11C,1.150000*%
%ADD12R,1.800000X3.500000*%
%ADD13R,3.500000X1.800000*%
%ADD14C,1.425000*%
%ADD15R,0.800000X0.900000*%
G04 APERTURE END LIST*
D10*
G36*
X145356105Y-82618604D02*
G01*
X145380373Y-82622204D01*
X145404172Y-82628165D01*
X145427271Y-82636430D01*
X145449450Y-82646920D01*
X145470493Y-82659532D01*
X145490199Y-82674147D01*
X145508377Y-82690623D01*
X145524853Y-82708801D01*
X145539468Y-82728507D01*
X145552080Y-82749550D01*
X145562570Y-82771729D01*
X145570835Y-82794828D01*
X145576796Y-82818627D01*
X145580396Y-82842895D01*
X145581600Y-82867399D01*
X145581600Y-83517401D01*
X145580396Y-83541905D01*
X145576796Y-83566173D01*
X145570835Y-83589972D01*
X145562570Y-83613071D01*
X145552080Y-83635250D01*
X145539468Y-83656293D01*
X145524853Y-83675999D01*
X145508377Y-83694177D01*
X145490199Y-83710653D01*
X145470493Y-83725268D01*
X145449450Y-83737880D01*
X145427271Y-83748370D01*
X145404172Y-83756635D01*
X145380373Y-83762596D01*
X145356105Y-83766196D01*
X145331601Y-83767400D01*
X144431599Y-83767400D01*
X144407095Y-83766196D01*
X144382827Y-83762596D01*
X144359028Y-83756635D01*
X144335929Y-83748370D01*
X144313750Y-83737880D01*
X144292707Y-83725268D01*
X144273001Y-83710653D01*
X144254823Y-83694177D01*
X144238347Y-83675999D01*
X144223732Y-83656293D01*
X144211120Y-83635250D01*
X144200630Y-83613071D01*
X144192365Y-83589972D01*
X144186404Y-83566173D01*
X144182804Y-83541905D01*
X144181600Y-83517401D01*
X144181600Y-82867399D01*
X144182804Y-82842895D01*
X144186404Y-82818627D01*
X144192365Y-82794828D01*
X144200630Y-82771729D01*
X144211120Y-82749550D01*
X144223732Y-82728507D01*
X144238347Y-82708801D01*
X144254823Y-82690623D01*
X144273001Y-82674147D01*
X144292707Y-82659532D01*
X144313750Y-82646920D01*
X144335929Y-82636430D01*
X144359028Y-82628165D01*
X144382827Y-82622204D01*
X144407095Y-82618604D01*
X144431599Y-82617400D01*
X145331601Y-82617400D01*
X145356105Y-82618604D01*
X145356105Y-82618604D01*
G37*
D11*
X144881600Y-83192400D03*
D10*
G36*
X145356105Y-84668604D02*
G01*
X145380373Y-84672204D01*
X145404172Y-84678165D01*
X145427271Y-84686430D01*
X145449450Y-84696920D01*
X145470493Y-84709532D01*
X145490199Y-84724147D01*
X145508377Y-84740623D01*
X145524853Y-84758801D01*
X145539468Y-84778507D01*
X145552080Y-84799550D01*
X145562570Y-84821729D01*
X145570835Y-84844828D01*
X145576796Y-84868627D01*
X145580396Y-84892895D01*
X145581600Y-84917399D01*
X145581600Y-85567401D01*
X145580396Y-85591905D01*
X145576796Y-85616173D01*
X145570835Y-85639972D01*
X145562570Y-85663071D01*
X145552080Y-85685250D01*
X145539468Y-85706293D01*
X145524853Y-85725999D01*
X145508377Y-85744177D01*
X145490199Y-85760653D01*
X145470493Y-85775268D01*
X145449450Y-85787880D01*
X145427271Y-85798370D01*
X145404172Y-85806635D01*
X145380373Y-85812596D01*
X145356105Y-85816196D01*
X145331601Y-85817400D01*
X144431599Y-85817400D01*
X144407095Y-85816196D01*
X144382827Y-85812596D01*
X144359028Y-85806635D01*
X144335929Y-85798370D01*
X144313750Y-85787880D01*
X144292707Y-85775268D01*
X144273001Y-85760653D01*
X144254823Y-85744177D01*
X144238347Y-85725999D01*
X144223732Y-85706293D01*
X144211120Y-85685250D01*
X144200630Y-85663071D01*
X144192365Y-85639972D01*
X144186404Y-85616173D01*
X144182804Y-85591905D01*
X144181600Y-85567401D01*
X144181600Y-84917399D01*
X144182804Y-84892895D01*
X144186404Y-84868627D01*
X144192365Y-84844828D01*
X144200630Y-84821729D01*
X144211120Y-84799550D01*
X144223732Y-84778507D01*
X144238347Y-84758801D01*
X144254823Y-84740623D01*
X144273001Y-84724147D01*
X144292707Y-84709532D01*
X144313750Y-84696920D01*
X144335929Y-84686430D01*
X144359028Y-84678165D01*
X144382827Y-84672204D01*
X144407095Y-84668604D01*
X144431599Y-84667400D01*
X145331601Y-84667400D01*
X145356105Y-84668604D01*
X145356105Y-84668604D01*
G37*
D11*
X144881600Y-85242400D03*
D10*
G36*
X143324105Y-82627604D02*
G01*
X143348373Y-82631204D01*
X143372172Y-82637165D01*
X143395271Y-82645430D01*
X143417450Y-82655920D01*
X143438493Y-82668532D01*
X143458199Y-82683147D01*
X143476377Y-82699623D01*
X143492853Y-82717801D01*
X143507468Y-82737507D01*
X143520080Y-82758550D01*
X143530570Y-82780729D01*
X143538835Y-82803828D01*
X143544796Y-82827627D01*
X143548396Y-82851895D01*
X143549600Y-82876399D01*
X143549600Y-83526401D01*
X143548396Y-83550905D01*
X143544796Y-83575173D01*
X143538835Y-83598972D01*
X143530570Y-83622071D01*
X143520080Y-83644250D01*
X143507468Y-83665293D01*
X143492853Y-83684999D01*
X143476377Y-83703177D01*
X143458199Y-83719653D01*
X143438493Y-83734268D01*
X143417450Y-83746880D01*
X143395271Y-83757370D01*
X143372172Y-83765635D01*
X143348373Y-83771596D01*
X143324105Y-83775196D01*
X143299601Y-83776400D01*
X142399599Y-83776400D01*
X142375095Y-83775196D01*
X142350827Y-83771596D01*
X142327028Y-83765635D01*
X142303929Y-83757370D01*
X142281750Y-83746880D01*
X142260707Y-83734268D01*
X142241001Y-83719653D01*
X142222823Y-83703177D01*
X142206347Y-83684999D01*
X142191732Y-83665293D01*
X142179120Y-83644250D01*
X142168630Y-83622071D01*
X142160365Y-83598972D01*
X142154404Y-83575173D01*
X142150804Y-83550905D01*
X142149600Y-83526401D01*
X142149600Y-82876399D01*
X142150804Y-82851895D01*
X142154404Y-82827627D01*
X142160365Y-82803828D01*
X142168630Y-82780729D01*
X142179120Y-82758550D01*
X142191732Y-82737507D01*
X142206347Y-82717801D01*
X142222823Y-82699623D01*
X142241001Y-82683147D01*
X142260707Y-82668532D01*
X142281750Y-82655920D01*
X142303929Y-82645430D01*
X142327028Y-82637165D01*
X142350827Y-82631204D01*
X142375095Y-82627604D01*
X142399599Y-82626400D01*
X143299601Y-82626400D01*
X143324105Y-82627604D01*
X143324105Y-82627604D01*
G37*
D11*
X142849600Y-83201400D03*
D10*
G36*
X143324105Y-84677604D02*
G01*
X143348373Y-84681204D01*
X143372172Y-84687165D01*
X143395271Y-84695430D01*
X143417450Y-84705920D01*
X143438493Y-84718532D01*
X143458199Y-84733147D01*
X143476377Y-84749623D01*
X143492853Y-84767801D01*
X143507468Y-84787507D01*
X143520080Y-84808550D01*
X143530570Y-84830729D01*
X143538835Y-84853828D01*
X143544796Y-84877627D01*
X143548396Y-84901895D01*
X143549600Y-84926399D01*
X143549600Y-85576401D01*
X143548396Y-85600905D01*
X143544796Y-85625173D01*
X143538835Y-85648972D01*
X143530570Y-85672071D01*
X143520080Y-85694250D01*
X143507468Y-85715293D01*
X143492853Y-85734999D01*
X143476377Y-85753177D01*
X143458199Y-85769653D01*
X143438493Y-85784268D01*
X143417450Y-85796880D01*
X143395271Y-85807370D01*
X143372172Y-85815635D01*
X143348373Y-85821596D01*
X143324105Y-85825196D01*
X143299601Y-85826400D01*
X142399599Y-85826400D01*
X142375095Y-85825196D01*
X142350827Y-85821596D01*
X142327028Y-85815635D01*
X142303929Y-85807370D01*
X142281750Y-85796880D01*
X142260707Y-85784268D01*
X142241001Y-85769653D01*
X142222823Y-85753177D01*
X142206347Y-85734999D01*
X142191732Y-85715293D01*
X142179120Y-85694250D01*
X142168630Y-85672071D01*
X142160365Y-85648972D01*
X142154404Y-85625173D01*
X142150804Y-85600905D01*
X142149600Y-85576401D01*
X142149600Y-84926399D01*
X142150804Y-84901895D01*
X142154404Y-84877627D01*
X142160365Y-84853828D01*
X142168630Y-84830729D01*
X142179120Y-84808550D01*
X142191732Y-84787507D01*
X142206347Y-84767801D01*
X142222823Y-84749623D01*
X142241001Y-84733147D01*
X142260707Y-84718532D01*
X142281750Y-84705920D01*
X142303929Y-84695430D01*
X142327028Y-84687165D01*
X142350827Y-84681204D01*
X142375095Y-84677604D01*
X142399599Y-84676400D01*
X143299601Y-84676400D01*
X143324105Y-84677604D01*
X143324105Y-84677604D01*
G37*
D11*
X142849600Y-85251400D03*
D12*
X201422000Y-83018000D03*
X201422000Y-78018000D03*
D10*
G36*
X143413005Y-79200204D02*
G01*
X143437273Y-79203804D01*
X143461072Y-79209765D01*
X143484171Y-79218030D01*
X143506350Y-79228520D01*
X143527393Y-79241132D01*
X143547099Y-79255747D01*
X143565277Y-79272223D01*
X143581753Y-79290401D01*
X143596368Y-79310107D01*
X143608980Y-79331150D01*
X143619470Y-79353329D01*
X143627735Y-79376428D01*
X143633696Y-79400227D01*
X143637296Y-79424495D01*
X143638500Y-79448999D01*
X143638500Y-80099001D01*
X143637296Y-80123505D01*
X143633696Y-80147773D01*
X143627735Y-80171572D01*
X143619470Y-80194671D01*
X143608980Y-80216850D01*
X143596368Y-80237893D01*
X143581753Y-80257599D01*
X143565277Y-80275777D01*
X143547099Y-80292253D01*
X143527393Y-80306868D01*
X143506350Y-80319480D01*
X143484171Y-80329970D01*
X143461072Y-80338235D01*
X143437273Y-80344196D01*
X143413005Y-80347796D01*
X143388501Y-80349000D01*
X142488499Y-80349000D01*
X142463995Y-80347796D01*
X142439727Y-80344196D01*
X142415928Y-80338235D01*
X142392829Y-80329970D01*
X142370650Y-80319480D01*
X142349607Y-80306868D01*
X142329901Y-80292253D01*
X142311723Y-80275777D01*
X142295247Y-80257599D01*
X142280632Y-80237893D01*
X142268020Y-80216850D01*
X142257530Y-80194671D01*
X142249265Y-80171572D01*
X142243304Y-80147773D01*
X142239704Y-80123505D01*
X142238500Y-80099001D01*
X142238500Y-79448999D01*
X142239704Y-79424495D01*
X142243304Y-79400227D01*
X142249265Y-79376428D01*
X142257530Y-79353329D01*
X142268020Y-79331150D01*
X142280632Y-79310107D01*
X142295247Y-79290401D01*
X142311723Y-79272223D01*
X142329901Y-79255747D01*
X142349607Y-79241132D01*
X142370650Y-79228520D01*
X142392829Y-79218030D01*
X142415928Y-79209765D01*
X142439727Y-79203804D01*
X142463995Y-79200204D01*
X142488499Y-79199000D01*
X143388501Y-79199000D01*
X143413005Y-79200204D01*
X143413005Y-79200204D01*
G37*
D11*
X142938500Y-79774000D03*
D10*
G36*
X143413005Y-77150204D02*
G01*
X143437273Y-77153804D01*
X143461072Y-77159765D01*
X143484171Y-77168030D01*
X143506350Y-77178520D01*
X143527393Y-77191132D01*
X143547099Y-77205747D01*
X143565277Y-77222223D01*
X143581753Y-77240401D01*
X143596368Y-77260107D01*
X143608980Y-77281150D01*
X143619470Y-77303329D01*
X143627735Y-77326428D01*
X143633696Y-77350227D01*
X143637296Y-77374495D01*
X143638500Y-77398999D01*
X143638500Y-78049001D01*
X143637296Y-78073505D01*
X143633696Y-78097773D01*
X143627735Y-78121572D01*
X143619470Y-78144671D01*
X143608980Y-78166850D01*
X143596368Y-78187893D01*
X143581753Y-78207599D01*
X143565277Y-78225777D01*
X143547099Y-78242253D01*
X143527393Y-78256868D01*
X143506350Y-78269480D01*
X143484171Y-78279970D01*
X143461072Y-78288235D01*
X143437273Y-78294196D01*
X143413005Y-78297796D01*
X143388501Y-78299000D01*
X142488499Y-78299000D01*
X142463995Y-78297796D01*
X142439727Y-78294196D01*
X142415928Y-78288235D01*
X142392829Y-78279970D01*
X142370650Y-78269480D01*
X142349607Y-78256868D01*
X142329901Y-78242253D01*
X142311723Y-78225777D01*
X142295247Y-78207599D01*
X142280632Y-78187893D01*
X142268020Y-78166850D01*
X142257530Y-78144671D01*
X142249265Y-78121572D01*
X142243304Y-78097773D01*
X142239704Y-78073505D01*
X142238500Y-78049001D01*
X142238500Y-77398999D01*
X142239704Y-77374495D01*
X142243304Y-77350227D01*
X142249265Y-77326428D01*
X142257530Y-77303329D01*
X142268020Y-77281150D01*
X142280632Y-77260107D01*
X142295247Y-77240401D01*
X142311723Y-77222223D01*
X142329901Y-77205747D01*
X142349607Y-77191132D01*
X142370650Y-77178520D01*
X142392829Y-77168030D01*
X142415928Y-77159765D01*
X142439727Y-77153804D01*
X142463995Y-77150204D01*
X142488499Y-77149000D01*
X143388501Y-77149000D01*
X143413005Y-77150204D01*
X143413005Y-77150204D01*
G37*
D11*
X142938500Y-77724000D03*
D13*
X171562400Y-85598000D03*
X166562400Y-85598000D03*
D10*
G36*
X150334505Y-70555204D02*
G01*
X150358773Y-70558804D01*
X150382572Y-70564765D01*
X150405671Y-70573030D01*
X150427850Y-70583520D01*
X150448893Y-70596132D01*
X150468599Y-70610747D01*
X150486777Y-70627223D01*
X150503253Y-70645401D01*
X150517868Y-70665107D01*
X150530480Y-70686150D01*
X150540970Y-70708329D01*
X150549235Y-70731428D01*
X150555196Y-70755227D01*
X150558796Y-70779495D01*
X150560000Y-70803999D01*
X150560000Y-71454001D01*
X150558796Y-71478505D01*
X150555196Y-71502773D01*
X150549235Y-71526572D01*
X150540970Y-71549671D01*
X150530480Y-71571850D01*
X150517868Y-71592893D01*
X150503253Y-71612599D01*
X150486777Y-71630777D01*
X150468599Y-71647253D01*
X150448893Y-71661868D01*
X150427850Y-71674480D01*
X150405671Y-71684970D01*
X150382572Y-71693235D01*
X150358773Y-71699196D01*
X150334505Y-71702796D01*
X150310001Y-71704000D01*
X149409999Y-71704000D01*
X149385495Y-71702796D01*
X149361227Y-71699196D01*
X149337428Y-71693235D01*
X149314329Y-71684970D01*
X149292150Y-71674480D01*
X149271107Y-71661868D01*
X149251401Y-71647253D01*
X149233223Y-71630777D01*
X149216747Y-71612599D01*
X149202132Y-71592893D01*
X149189520Y-71571850D01*
X149179030Y-71549671D01*
X149170765Y-71526572D01*
X149164804Y-71502773D01*
X149161204Y-71478505D01*
X149160000Y-71454001D01*
X149160000Y-70803999D01*
X149161204Y-70779495D01*
X149164804Y-70755227D01*
X149170765Y-70731428D01*
X149179030Y-70708329D01*
X149189520Y-70686150D01*
X149202132Y-70665107D01*
X149216747Y-70645401D01*
X149233223Y-70627223D01*
X149251401Y-70610747D01*
X149271107Y-70596132D01*
X149292150Y-70583520D01*
X149314329Y-70573030D01*
X149337428Y-70564765D01*
X149361227Y-70558804D01*
X149385495Y-70555204D01*
X149409999Y-70554000D01*
X150310001Y-70554000D01*
X150334505Y-70555204D01*
X150334505Y-70555204D01*
G37*
D11*
X149860000Y-71129000D03*
D10*
G36*
X150334505Y-68505204D02*
G01*
X150358773Y-68508804D01*
X150382572Y-68514765D01*
X150405671Y-68523030D01*
X150427850Y-68533520D01*
X150448893Y-68546132D01*
X150468599Y-68560747D01*
X150486777Y-68577223D01*
X150503253Y-68595401D01*
X150517868Y-68615107D01*
X150530480Y-68636150D01*
X150540970Y-68658329D01*
X150549235Y-68681428D01*
X150555196Y-68705227D01*
X150558796Y-68729495D01*
X150560000Y-68753999D01*
X150560000Y-69404001D01*
X150558796Y-69428505D01*
X150555196Y-69452773D01*
X150549235Y-69476572D01*
X150540970Y-69499671D01*
X150530480Y-69521850D01*
X150517868Y-69542893D01*
X150503253Y-69562599D01*
X150486777Y-69580777D01*
X150468599Y-69597253D01*
X150448893Y-69611868D01*
X150427850Y-69624480D01*
X150405671Y-69634970D01*
X150382572Y-69643235D01*
X150358773Y-69649196D01*
X150334505Y-69652796D01*
X150310001Y-69654000D01*
X149409999Y-69654000D01*
X149385495Y-69652796D01*
X149361227Y-69649196D01*
X149337428Y-69643235D01*
X149314329Y-69634970D01*
X149292150Y-69624480D01*
X149271107Y-69611868D01*
X149251401Y-69597253D01*
X149233223Y-69580777D01*
X149216747Y-69562599D01*
X149202132Y-69542893D01*
X149189520Y-69521850D01*
X149179030Y-69499671D01*
X149170765Y-69476572D01*
X149164804Y-69452773D01*
X149161204Y-69428505D01*
X149160000Y-69404001D01*
X149160000Y-68753999D01*
X149161204Y-68729495D01*
X149164804Y-68705227D01*
X149170765Y-68681428D01*
X149179030Y-68658329D01*
X149189520Y-68636150D01*
X149202132Y-68615107D01*
X149216747Y-68595401D01*
X149233223Y-68577223D01*
X149251401Y-68560747D01*
X149271107Y-68546132D01*
X149292150Y-68533520D01*
X149314329Y-68523030D01*
X149337428Y-68514765D01*
X149361227Y-68508804D01*
X149385495Y-68505204D01*
X149409999Y-68504000D01*
X150310001Y-68504000D01*
X150334505Y-68505204D01*
X150334505Y-68505204D01*
G37*
D11*
X149860000Y-69079000D03*
D10*
G36*
X154601705Y-52114804D02*
G01*
X154625973Y-52118404D01*
X154649772Y-52124365D01*
X154672871Y-52132630D01*
X154695050Y-52143120D01*
X154716093Y-52155732D01*
X154735799Y-52170347D01*
X154753977Y-52186823D01*
X154770453Y-52205001D01*
X154785068Y-52224707D01*
X154797680Y-52245750D01*
X154808170Y-52267929D01*
X154816435Y-52291028D01*
X154822396Y-52314827D01*
X154825996Y-52339095D01*
X154827200Y-52363599D01*
X154827200Y-53013601D01*
X154825996Y-53038105D01*
X154822396Y-53062373D01*
X154816435Y-53086172D01*
X154808170Y-53109271D01*
X154797680Y-53131450D01*
X154785068Y-53152493D01*
X154770453Y-53172199D01*
X154753977Y-53190377D01*
X154735799Y-53206853D01*
X154716093Y-53221468D01*
X154695050Y-53234080D01*
X154672871Y-53244570D01*
X154649772Y-53252835D01*
X154625973Y-53258796D01*
X154601705Y-53262396D01*
X154577201Y-53263600D01*
X153677199Y-53263600D01*
X153652695Y-53262396D01*
X153628427Y-53258796D01*
X153604628Y-53252835D01*
X153581529Y-53244570D01*
X153559350Y-53234080D01*
X153538307Y-53221468D01*
X153518601Y-53206853D01*
X153500423Y-53190377D01*
X153483947Y-53172199D01*
X153469332Y-53152493D01*
X153456720Y-53131450D01*
X153446230Y-53109271D01*
X153437965Y-53086172D01*
X153432004Y-53062373D01*
X153428404Y-53038105D01*
X153427200Y-53013601D01*
X153427200Y-52363599D01*
X153428404Y-52339095D01*
X153432004Y-52314827D01*
X153437965Y-52291028D01*
X153446230Y-52267929D01*
X153456720Y-52245750D01*
X153469332Y-52224707D01*
X153483947Y-52205001D01*
X153500423Y-52186823D01*
X153518601Y-52170347D01*
X153538307Y-52155732D01*
X153559350Y-52143120D01*
X153581529Y-52132630D01*
X153604628Y-52124365D01*
X153628427Y-52118404D01*
X153652695Y-52114804D01*
X153677199Y-52113600D01*
X154577201Y-52113600D01*
X154601705Y-52114804D01*
X154601705Y-52114804D01*
G37*
D11*
X154127200Y-52688600D03*
D10*
G36*
X154601705Y-50064804D02*
G01*
X154625973Y-50068404D01*
X154649772Y-50074365D01*
X154672871Y-50082630D01*
X154695050Y-50093120D01*
X154716093Y-50105732D01*
X154735799Y-50120347D01*
X154753977Y-50136823D01*
X154770453Y-50155001D01*
X154785068Y-50174707D01*
X154797680Y-50195750D01*
X154808170Y-50217929D01*
X154816435Y-50241028D01*
X154822396Y-50264827D01*
X154825996Y-50289095D01*
X154827200Y-50313599D01*
X154827200Y-50963601D01*
X154825996Y-50988105D01*
X154822396Y-51012373D01*
X154816435Y-51036172D01*
X154808170Y-51059271D01*
X154797680Y-51081450D01*
X154785068Y-51102493D01*
X154770453Y-51122199D01*
X154753977Y-51140377D01*
X154735799Y-51156853D01*
X154716093Y-51171468D01*
X154695050Y-51184080D01*
X154672871Y-51194570D01*
X154649772Y-51202835D01*
X154625973Y-51208796D01*
X154601705Y-51212396D01*
X154577201Y-51213600D01*
X153677199Y-51213600D01*
X153652695Y-51212396D01*
X153628427Y-51208796D01*
X153604628Y-51202835D01*
X153581529Y-51194570D01*
X153559350Y-51184080D01*
X153538307Y-51171468D01*
X153518601Y-51156853D01*
X153500423Y-51140377D01*
X153483947Y-51122199D01*
X153469332Y-51102493D01*
X153456720Y-51081450D01*
X153446230Y-51059271D01*
X153437965Y-51036172D01*
X153432004Y-51012373D01*
X153428404Y-50988105D01*
X153427200Y-50963601D01*
X153427200Y-50313599D01*
X153428404Y-50289095D01*
X153432004Y-50264827D01*
X153437965Y-50241028D01*
X153446230Y-50217929D01*
X153456720Y-50195750D01*
X153469332Y-50174707D01*
X153483947Y-50155001D01*
X153500423Y-50136823D01*
X153518601Y-50120347D01*
X153538307Y-50105732D01*
X153559350Y-50093120D01*
X153581529Y-50082630D01*
X153604628Y-50074365D01*
X153628427Y-50068404D01*
X153652695Y-50064804D01*
X153677199Y-50063600D01*
X154577201Y-50063600D01*
X154601705Y-50064804D01*
X154601705Y-50064804D01*
G37*
D11*
X154127200Y-50638600D03*
D10*
G36*
X143908305Y-49743604D02*
G01*
X143932573Y-49747204D01*
X143956372Y-49753165D01*
X143979471Y-49761430D01*
X144001650Y-49771920D01*
X144022693Y-49784532D01*
X144042399Y-49799147D01*
X144060577Y-49815623D01*
X144077053Y-49833801D01*
X144091668Y-49853507D01*
X144104280Y-49874550D01*
X144114770Y-49896729D01*
X144123035Y-49919828D01*
X144128996Y-49943627D01*
X144132596Y-49967895D01*
X144133800Y-49992399D01*
X144133800Y-50642401D01*
X144132596Y-50666905D01*
X144128996Y-50691173D01*
X144123035Y-50714972D01*
X144114770Y-50738071D01*
X144104280Y-50760250D01*
X144091668Y-50781293D01*
X144077053Y-50800999D01*
X144060577Y-50819177D01*
X144042399Y-50835653D01*
X144022693Y-50850268D01*
X144001650Y-50862880D01*
X143979471Y-50873370D01*
X143956372Y-50881635D01*
X143932573Y-50887596D01*
X143908305Y-50891196D01*
X143883801Y-50892400D01*
X142983799Y-50892400D01*
X142959295Y-50891196D01*
X142935027Y-50887596D01*
X142911228Y-50881635D01*
X142888129Y-50873370D01*
X142865950Y-50862880D01*
X142844907Y-50850268D01*
X142825201Y-50835653D01*
X142807023Y-50819177D01*
X142790547Y-50800999D01*
X142775932Y-50781293D01*
X142763320Y-50760250D01*
X142752830Y-50738071D01*
X142744565Y-50714972D01*
X142738604Y-50691173D01*
X142735004Y-50666905D01*
X142733800Y-50642401D01*
X142733800Y-49992399D01*
X142735004Y-49967895D01*
X142738604Y-49943627D01*
X142744565Y-49919828D01*
X142752830Y-49896729D01*
X142763320Y-49874550D01*
X142775932Y-49853507D01*
X142790547Y-49833801D01*
X142807023Y-49815623D01*
X142825201Y-49799147D01*
X142844907Y-49784532D01*
X142865950Y-49771920D01*
X142888129Y-49761430D01*
X142911228Y-49753165D01*
X142935027Y-49747204D01*
X142959295Y-49743604D01*
X142983799Y-49742400D01*
X143883801Y-49742400D01*
X143908305Y-49743604D01*
X143908305Y-49743604D01*
G37*
D11*
X143433800Y-50317400D03*
D10*
G36*
X143908305Y-47693604D02*
G01*
X143932573Y-47697204D01*
X143956372Y-47703165D01*
X143979471Y-47711430D01*
X144001650Y-47721920D01*
X144022693Y-47734532D01*
X144042399Y-47749147D01*
X144060577Y-47765623D01*
X144077053Y-47783801D01*
X144091668Y-47803507D01*
X144104280Y-47824550D01*
X144114770Y-47846729D01*
X144123035Y-47869828D01*
X144128996Y-47893627D01*
X144132596Y-47917895D01*
X144133800Y-47942399D01*
X144133800Y-48592401D01*
X144132596Y-48616905D01*
X144128996Y-48641173D01*
X144123035Y-48664972D01*
X144114770Y-48688071D01*
X144104280Y-48710250D01*
X144091668Y-48731293D01*
X144077053Y-48750999D01*
X144060577Y-48769177D01*
X144042399Y-48785653D01*
X144022693Y-48800268D01*
X144001650Y-48812880D01*
X143979471Y-48823370D01*
X143956372Y-48831635D01*
X143932573Y-48837596D01*
X143908305Y-48841196D01*
X143883801Y-48842400D01*
X142983799Y-48842400D01*
X142959295Y-48841196D01*
X142935027Y-48837596D01*
X142911228Y-48831635D01*
X142888129Y-48823370D01*
X142865950Y-48812880D01*
X142844907Y-48800268D01*
X142825201Y-48785653D01*
X142807023Y-48769177D01*
X142790547Y-48750999D01*
X142775932Y-48731293D01*
X142763320Y-48710250D01*
X142752830Y-48688071D01*
X142744565Y-48664972D01*
X142738604Y-48641173D01*
X142735004Y-48616905D01*
X142733800Y-48592401D01*
X142733800Y-47942399D01*
X142735004Y-47917895D01*
X142738604Y-47893627D01*
X142744565Y-47869828D01*
X142752830Y-47846729D01*
X142763320Y-47824550D01*
X142775932Y-47803507D01*
X142790547Y-47783801D01*
X142807023Y-47765623D01*
X142825201Y-47749147D01*
X142844907Y-47734532D01*
X142865950Y-47721920D01*
X142888129Y-47711430D01*
X142911228Y-47703165D01*
X142935027Y-47697204D01*
X142959295Y-47693604D01*
X142983799Y-47692400D01*
X143883801Y-47692400D01*
X143908305Y-47693604D01*
X143908305Y-47693604D01*
G37*
D11*
X143433800Y-48267400D03*
D10*
G36*
X143413005Y-73213204D02*
G01*
X143437273Y-73216804D01*
X143461072Y-73222765D01*
X143484171Y-73231030D01*
X143506350Y-73241520D01*
X143527393Y-73254132D01*
X143547099Y-73268747D01*
X143565277Y-73285223D01*
X143581753Y-73303401D01*
X143596368Y-73323107D01*
X143608980Y-73344150D01*
X143619470Y-73366329D01*
X143627735Y-73389428D01*
X143633696Y-73413227D01*
X143637296Y-73437495D01*
X143638500Y-73461999D01*
X143638500Y-74112001D01*
X143637296Y-74136505D01*
X143633696Y-74160773D01*
X143627735Y-74184572D01*
X143619470Y-74207671D01*
X143608980Y-74229850D01*
X143596368Y-74250893D01*
X143581753Y-74270599D01*
X143565277Y-74288777D01*
X143547099Y-74305253D01*
X143527393Y-74319868D01*
X143506350Y-74332480D01*
X143484171Y-74342970D01*
X143461072Y-74351235D01*
X143437273Y-74357196D01*
X143413005Y-74360796D01*
X143388501Y-74362000D01*
X142488499Y-74362000D01*
X142463995Y-74360796D01*
X142439727Y-74357196D01*
X142415928Y-74351235D01*
X142392829Y-74342970D01*
X142370650Y-74332480D01*
X142349607Y-74319868D01*
X142329901Y-74305253D01*
X142311723Y-74288777D01*
X142295247Y-74270599D01*
X142280632Y-74250893D01*
X142268020Y-74229850D01*
X142257530Y-74207671D01*
X142249265Y-74184572D01*
X142243304Y-74160773D01*
X142239704Y-74136505D01*
X142238500Y-74112001D01*
X142238500Y-73461999D01*
X142239704Y-73437495D01*
X142243304Y-73413227D01*
X142249265Y-73389428D01*
X142257530Y-73366329D01*
X142268020Y-73344150D01*
X142280632Y-73323107D01*
X142295247Y-73303401D01*
X142311723Y-73285223D01*
X142329901Y-73268747D01*
X142349607Y-73254132D01*
X142370650Y-73241520D01*
X142392829Y-73231030D01*
X142415928Y-73222765D01*
X142439727Y-73216804D01*
X142463995Y-73213204D01*
X142488499Y-73212000D01*
X143388501Y-73212000D01*
X143413005Y-73213204D01*
X143413005Y-73213204D01*
G37*
D11*
X142938500Y-73787000D03*
D10*
G36*
X143413005Y-75263204D02*
G01*
X143437273Y-75266804D01*
X143461072Y-75272765D01*
X143484171Y-75281030D01*
X143506350Y-75291520D01*
X143527393Y-75304132D01*
X143547099Y-75318747D01*
X143565277Y-75335223D01*
X143581753Y-75353401D01*
X143596368Y-75373107D01*
X143608980Y-75394150D01*
X143619470Y-75416329D01*
X143627735Y-75439428D01*
X143633696Y-75463227D01*
X143637296Y-75487495D01*
X143638500Y-75511999D01*
X143638500Y-76162001D01*
X143637296Y-76186505D01*
X143633696Y-76210773D01*
X143627735Y-76234572D01*
X143619470Y-76257671D01*
X143608980Y-76279850D01*
X143596368Y-76300893D01*
X143581753Y-76320599D01*
X143565277Y-76338777D01*
X143547099Y-76355253D01*
X143527393Y-76369868D01*
X143506350Y-76382480D01*
X143484171Y-76392970D01*
X143461072Y-76401235D01*
X143437273Y-76407196D01*
X143413005Y-76410796D01*
X143388501Y-76412000D01*
X142488499Y-76412000D01*
X142463995Y-76410796D01*
X142439727Y-76407196D01*
X142415928Y-76401235D01*
X142392829Y-76392970D01*
X142370650Y-76382480D01*
X142349607Y-76369868D01*
X142329901Y-76355253D01*
X142311723Y-76338777D01*
X142295247Y-76320599D01*
X142280632Y-76300893D01*
X142268020Y-76279850D01*
X142257530Y-76257671D01*
X142249265Y-76234572D01*
X142243304Y-76210773D01*
X142239704Y-76186505D01*
X142238500Y-76162001D01*
X142238500Y-75511999D01*
X142239704Y-75487495D01*
X142243304Y-75463227D01*
X142249265Y-75439428D01*
X142257530Y-75416329D01*
X142268020Y-75394150D01*
X142280632Y-75373107D01*
X142295247Y-75353401D01*
X142311723Y-75335223D01*
X142329901Y-75318747D01*
X142349607Y-75304132D01*
X142370650Y-75291520D01*
X142392829Y-75281030D01*
X142415928Y-75272765D01*
X142439727Y-75266804D01*
X142463995Y-75263204D01*
X142488499Y-75262000D01*
X143388501Y-75262000D01*
X143413005Y-75263204D01*
X143413005Y-75263204D01*
G37*
D11*
X142938500Y-75837000D03*
D10*
G36*
X143806705Y-59907304D02*
G01*
X143830973Y-59910904D01*
X143854772Y-59916865D01*
X143877871Y-59925130D01*
X143900050Y-59935620D01*
X143921093Y-59948232D01*
X143940799Y-59962847D01*
X143958977Y-59979323D01*
X143975453Y-59997501D01*
X143990068Y-60017207D01*
X144002680Y-60038250D01*
X144013170Y-60060429D01*
X144021435Y-60083528D01*
X144027396Y-60107327D01*
X144030996Y-60131595D01*
X144032200Y-60156099D01*
X144032200Y-60806101D01*
X144030996Y-60830605D01*
X144027396Y-60854873D01*
X144021435Y-60878672D01*
X144013170Y-60901771D01*
X144002680Y-60923950D01*
X143990068Y-60944993D01*
X143975453Y-60964699D01*
X143958977Y-60982877D01*
X143940799Y-60999353D01*
X143921093Y-61013968D01*
X143900050Y-61026580D01*
X143877871Y-61037070D01*
X143854772Y-61045335D01*
X143830973Y-61051296D01*
X143806705Y-61054896D01*
X143782201Y-61056100D01*
X142882199Y-61056100D01*
X142857695Y-61054896D01*
X142833427Y-61051296D01*
X142809628Y-61045335D01*
X142786529Y-61037070D01*
X142764350Y-61026580D01*
X142743307Y-61013968D01*
X142723601Y-60999353D01*
X142705423Y-60982877D01*
X142688947Y-60964699D01*
X142674332Y-60944993D01*
X142661720Y-60923950D01*
X142651230Y-60901771D01*
X142642965Y-60878672D01*
X142637004Y-60854873D01*
X142633404Y-60830605D01*
X142632200Y-60806101D01*
X142632200Y-60156099D01*
X142633404Y-60131595D01*
X142637004Y-60107327D01*
X142642965Y-60083528D01*
X142651230Y-60060429D01*
X142661720Y-60038250D01*
X142674332Y-60017207D01*
X142688947Y-59997501D01*
X142705423Y-59979323D01*
X142723601Y-59962847D01*
X142743307Y-59948232D01*
X142764350Y-59935620D01*
X142786529Y-59925130D01*
X142809628Y-59916865D01*
X142833427Y-59910904D01*
X142857695Y-59907304D01*
X142882199Y-59906100D01*
X143782201Y-59906100D01*
X143806705Y-59907304D01*
X143806705Y-59907304D01*
G37*
D11*
X143332200Y-60481100D03*
D10*
G36*
X143806705Y-61957304D02*
G01*
X143830973Y-61960904D01*
X143854772Y-61966865D01*
X143877871Y-61975130D01*
X143900050Y-61985620D01*
X143921093Y-61998232D01*
X143940799Y-62012847D01*
X143958977Y-62029323D01*
X143975453Y-62047501D01*
X143990068Y-62067207D01*
X144002680Y-62088250D01*
X144013170Y-62110429D01*
X144021435Y-62133528D01*
X144027396Y-62157327D01*
X144030996Y-62181595D01*
X144032200Y-62206099D01*
X144032200Y-62856101D01*
X144030996Y-62880605D01*
X144027396Y-62904873D01*
X144021435Y-62928672D01*
X144013170Y-62951771D01*
X144002680Y-62973950D01*
X143990068Y-62994993D01*
X143975453Y-63014699D01*
X143958977Y-63032877D01*
X143940799Y-63049353D01*
X143921093Y-63063968D01*
X143900050Y-63076580D01*
X143877871Y-63087070D01*
X143854772Y-63095335D01*
X143830973Y-63101296D01*
X143806705Y-63104896D01*
X143782201Y-63106100D01*
X142882199Y-63106100D01*
X142857695Y-63104896D01*
X142833427Y-63101296D01*
X142809628Y-63095335D01*
X142786529Y-63087070D01*
X142764350Y-63076580D01*
X142743307Y-63063968D01*
X142723601Y-63049353D01*
X142705423Y-63032877D01*
X142688947Y-63014699D01*
X142674332Y-62994993D01*
X142661720Y-62973950D01*
X142651230Y-62951771D01*
X142642965Y-62928672D01*
X142637004Y-62904873D01*
X142633404Y-62880605D01*
X142632200Y-62856101D01*
X142632200Y-62206099D01*
X142633404Y-62181595D01*
X142637004Y-62157327D01*
X142642965Y-62133528D01*
X142651230Y-62110429D01*
X142661720Y-62088250D01*
X142674332Y-62067207D01*
X142688947Y-62047501D01*
X142705423Y-62029323D01*
X142723601Y-62012847D01*
X142743307Y-61998232D01*
X142764350Y-61985620D01*
X142786529Y-61975130D01*
X142809628Y-61966865D01*
X142833427Y-61960904D01*
X142857695Y-61957304D01*
X142882199Y-61956100D01*
X143782201Y-61956100D01*
X143806705Y-61957304D01*
X143806705Y-61957304D01*
G37*
D11*
X143332200Y-62531100D03*
D10*
G36*
X167273504Y-82183204D02*
G01*
X167297773Y-82186804D01*
X167321571Y-82192765D01*
X167344671Y-82201030D01*
X167366849Y-82211520D01*
X167387893Y-82224133D01*
X167407598Y-82238747D01*
X167425777Y-82255223D01*
X167442253Y-82273402D01*
X167456867Y-82293107D01*
X167469480Y-82314151D01*
X167479970Y-82336329D01*
X167488235Y-82359429D01*
X167494196Y-82383227D01*
X167497796Y-82407496D01*
X167499000Y-82432000D01*
X167499000Y-83357000D01*
X167497796Y-83381504D01*
X167494196Y-83405773D01*
X167488235Y-83429571D01*
X167479970Y-83452671D01*
X167469480Y-83474849D01*
X167456867Y-83495893D01*
X167442253Y-83515598D01*
X167425777Y-83533777D01*
X167407598Y-83550253D01*
X167387893Y-83564867D01*
X167366849Y-83577480D01*
X167344671Y-83587970D01*
X167321571Y-83596235D01*
X167297773Y-83602196D01*
X167273504Y-83605796D01*
X167249000Y-83607000D01*
X165999000Y-83607000D01*
X165974496Y-83605796D01*
X165950227Y-83602196D01*
X165926429Y-83596235D01*
X165903329Y-83587970D01*
X165881151Y-83577480D01*
X165860107Y-83564867D01*
X165840402Y-83550253D01*
X165822223Y-83533777D01*
X165805747Y-83515598D01*
X165791133Y-83495893D01*
X165778520Y-83474849D01*
X165768030Y-83452671D01*
X165759765Y-83429571D01*
X165753804Y-83405773D01*
X165750204Y-83381504D01*
X165749000Y-83357000D01*
X165749000Y-82432000D01*
X165750204Y-82407496D01*
X165753804Y-82383227D01*
X165759765Y-82359429D01*
X165768030Y-82336329D01*
X165778520Y-82314151D01*
X165791133Y-82293107D01*
X165805747Y-82273402D01*
X165822223Y-82255223D01*
X165840402Y-82238747D01*
X165860107Y-82224133D01*
X165881151Y-82211520D01*
X165903329Y-82201030D01*
X165926429Y-82192765D01*
X165950227Y-82186804D01*
X165974496Y-82183204D01*
X165999000Y-82182000D01*
X167249000Y-82182000D01*
X167273504Y-82183204D01*
X167273504Y-82183204D01*
G37*
D14*
X166624000Y-82894500D03*
D10*
G36*
X167273504Y-79208204D02*
G01*
X167297773Y-79211804D01*
X167321571Y-79217765D01*
X167344671Y-79226030D01*
X167366849Y-79236520D01*
X167387893Y-79249133D01*
X167407598Y-79263747D01*
X167425777Y-79280223D01*
X167442253Y-79298402D01*
X167456867Y-79318107D01*
X167469480Y-79339151D01*
X167479970Y-79361329D01*
X167488235Y-79384429D01*
X167494196Y-79408227D01*
X167497796Y-79432496D01*
X167499000Y-79457000D01*
X167499000Y-80382000D01*
X167497796Y-80406504D01*
X167494196Y-80430773D01*
X167488235Y-80454571D01*
X167479970Y-80477671D01*
X167469480Y-80499849D01*
X167456867Y-80520893D01*
X167442253Y-80540598D01*
X167425777Y-80558777D01*
X167407598Y-80575253D01*
X167387893Y-80589867D01*
X167366849Y-80602480D01*
X167344671Y-80612970D01*
X167321571Y-80621235D01*
X167297773Y-80627196D01*
X167273504Y-80630796D01*
X167249000Y-80632000D01*
X165999000Y-80632000D01*
X165974496Y-80630796D01*
X165950227Y-80627196D01*
X165926429Y-80621235D01*
X165903329Y-80612970D01*
X165881151Y-80602480D01*
X165860107Y-80589867D01*
X165840402Y-80575253D01*
X165822223Y-80558777D01*
X165805747Y-80540598D01*
X165791133Y-80520893D01*
X165778520Y-80499849D01*
X165768030Y-80477671D01*
X165759765Y-80454571D01*
X165753804Y-80430773D01*
X165750204Y-80406504D01*
X165749000Y-80382000D01*
X165749000Y-79457000D01*
X165750204Y-79432496D01*
X165753804Y-79408227D01*
X165759765Y-79384429D01*
X165768030Y-79361329D01*
X165778520Y-79339151D01*
X165791133Y-79318107D01*
X165805747Y-79298402D01*
X165822223Y-79280223D01*
X165840402Y-79263747D01*
X165860107Y-79249133D01*
X165881151Y-79236520D01*
X165903329Y-79226030D01*
X165926429Y-79217765D01*
X165950227Y-79211804D01*
X165974496Y-79208204D01*
X165999000Y-79207000D01*
X167249000Y-79207000D01*
X167273504Y-79208204D01*
X167273504Y-79208204D01*
G37*
D14*
X166624000Y-79919500D03*
D10*
G36*
X149928105Y-45977004D02*
G01*
X149952373Y-45980604D01*
X149976172Y-45986565D01*
X149999271Y-45994830D01*
X150021450Y-46005320D01*
X150042493Y-46017932D01*
X150062199Y-46032547D01*
X150080377Y-46049023D01*
X150096853Y-46067201D01*
X150111468Y-46086907D01*
X150124080Y-46107950D01*
X150134570Y-46130129D01*
X150142835Y-46153228D01*
X150148796Y-46177027D01*
X150152396Y-46201295D01*
X150153600Y-46225799D01*
X150153600Y-46875801D01*
X150152396Y-46900305D01*
X150148796Y-46924573D01*
X150142835Y-46948372D01*
X150134570Y-46971471D01*
X150124080Y-46993650D01*
X150111468Y-47014693D01*
X150096853Y-47034399D01*
X150080377Y-47052577D01*
X150062199Y-47069053D01*
X150042493Y-47083668D01*
X150021450Y-47096280D01*
X149999271Y-47106770D01*
X149976172Y-47115035D01*
X149952373Y-47120996D01*
X149928105Y-47124596D01*
X149903601Y-47125800D01*
X149003599Y-47125800D01*
X148979095Y-47124596D01*
X148954827Y-47120996D01*
X148931028Y-47115035D01*
X148907929Y-47106770D01*
X148885750Y-47096280D01*
X148864707Y-47083668D01*
X148845001Y-47069053D01*
X148826823Y-47052577D01*
X148810347Y-47034399D01*
X148795732Y-47014693D01*
X148783120Y-46993650D01*
X148772630Y-46971471D01*
X148764365Y-46948372D01*
X148758404Y-46924573D01*
X148754804Y-46900305D01*
X148753600Y-46875801D01*
X148753600Y-46225799D01*
X148754804Y-46201295D01*
X148758404Y-46177027D01*
X148764365Y-46153228D01*
X148772630Y-46130129D01*
X148783120Y-46107950D01*
X148795732Y-46086907D01*
X148810347Y-46067201D01*
X148826823Y-46049023D01*
X148845001Y-46032547D01*
X148864707Y-46017932D01*
X148885750Y-46005320D01*
X148907929Y-45994830D01*
X148931028Y-45986565D01*
X148954827Y-45980604D01*
X148979095Y-45977004D01*
X149003599Y-45975800D01*
X149903601Y-45975800D01*
X149928105Y-45977004D01*
X149928105Y-45977004D01*
G37*
D11*
X149453600Y-46550800D03*
D10*
G36*
X149928105Y-43927004D02*
G01*
X149952373Y-43930604D01*
X149976172Y-43936565D01*
X149999271Y-43944830D01*
X150021450Y-43955320D01*
X150042493Y-43967932D01*
X150062199Y-43982547D01*
X150080377Y-43999023D01*
X150096853Y-44017201D01*
X150111468Y-44036907D01*
X150124080Y-44057950D01*
X150134570Y-44080129D01*
X150142835Y-44103228D01*
X150148796Y-44127027D01*
X150152396Y-44151295D01*
X150153600Y-44175799D01*
X150153600Y-44825801D01*
X150152396Y-44850305D01*
X150148796Y-44874573D01*
X150142835Y-44898372D01*
X150134570Y-44921471D01*
X150124080Y-44943650D01*
X150111468Y-44964693D01*
X150096853Y-44984399D01*
X150080377Y-45002577D01*
X150062199Y-45019053D01*
X150042493Y-45033668D01*
X150021450Y-45046280D01*
X149999271Y-45056770D01*
X149976172Y-45065035D01*
X149952373Y-45070996D01*
X149928105Y-45074596D01*
X149903601Y-45075800D01*
X149003599Y-45075800D01*
X148979095Y-45074596D01*
X148954827Y-45070996D01*
X148931028Y-45065035D01*
X148907929Y-45056770D01*
X148885750Y-45046280D01*
X148864707Y-45033668D01*
X148845001Y-45019053D01*
X148826823Y-45002577D01*
X148810347Y-44984399D01*
X148795732Y-44964693D01*
X148783120Y-44943650D01*
X148772630Y-44921471D01*
X148764365Y-44898372D01*
X148758404Y-44874573D01*
X148754804Y-44850305D01*
X148753600Y-44825801D01*
X148753600Y-44175799D01*
X148754804Y-44151295D01*
X148758404Y-44127027D01*
X148764365Y-44103228D01*
X148772630Y-44080129D01*
X148783120Y-44057950D01*
X148795732Y-44036907D01*
X148810347Y-44017201D01*
X148826823Y-43999023D01*
X148845001Y-43982547D01*
X148864707Y-43967932D01*
X148885750Y-43955320D01*
X148907929Y-43944830D01*
X148931028Y-43936565D01*
X148954827Y-43930604D01*
X148979095Y-43927004D01*
X149003599Y-43925800D01*
X149903601Y-43925800D01*
X149928105Y-43927004D01*
X149928105Y-43927004D01*
G37*
D11*
X149453600Y-44500800D03*
D10*
G36*
X152426705Y-43852804D02*
G01*
X152450973Y-43856404D01*
X152474772Y-43862365D01*
X152497871Y-43870630D01*
X152520050Y-43881120D01*
X152541093Y-43893732D01*
X152560799Y-43908347D01*
X152578977Y-43924823D01*
X152595453Y-43943001D01*
X152610068Y-43962707D01*
X152622680Y-43983750D01*
X152633170Y-44005929D01*
X152641435Y-44029028D01*
X152647396Y-44052827D01*
X152650996Y-44077095D01*
X152652200Y-44101599D01*
X152652200Y-45001601D01*
X152650996Y-45026105D01*
X152647396Y-45050373D01*
X152641435Y-45074172D01*
X152633170Y-45097271D01*
X152622680Y-45119450D01*
X152610068Y-45140493D01*
X152595453Y-45160199D01*
X152578977Y-45178377D01*
X152560799Y-45194853D01*
X152541093Y-45209468D01*
X152520050Y-45222080D01*
X152497871Y-45232570D01*
X152474772Y-45240835D01*
X152450973Y-45246796D01*
X152426705Y-45250396D01*
X152402201Y-45251600D01*
X151752199Y-45251600D01*
X151727695Y-45250396D01*
X151703427Y-45246796D01*
X151679628Y-45240835D01*
X151656529Y-45232570D01*
X151634350Y-45222080D01*
X151613307Y-45209468D01*
X151593601Y-45194853D01*
X151575423Y-45178377D01*
X151558947Y-45160199D01*
X151544332Y-45140493D01*
X151531720Y-45119450D01*
X151521230Y-45097271D01*
X151512965Y-45074172D01*
X151507004Y-45050373D01*
X151503404Y-45026105D01*
X151502200Y-45001601D01*
X151502200Y-44101599D01*
X151503404Y-44077095D01*
X151507004Y-44052827D01*
X151512965Y-44029028D01*
X151521230Y-44005929D01*
X151531720Y-43983750D01*
X151544332Y-43962707D01*
X151558947Y-43943001D01*
X151575423Y-43924823D01*
X151593601Y-43908347D01*
X151613307Y-43893732D01*
X151634350Y-43881120D01*
X151656529Y-43870630D01*
X151679628Y-43862365D01*
X151703427Y-43856404D01*
X151727695Y-43852804D01*
X151752199Y-43851600D01*
X152402201Y-43851600D01*
X152426705Y-43852804D01*
X152426705Y-43852804D01*
G37*
D11*
X152077200Y-44551600D03*
D10*
G36*
X154476705Y-43852804D02*
G01*
X154500973Y-43856404D01*
X154524772Y-43862365D01*
X154547871Y-43870630D01*
X154570050Y-43881120D01*
X154591093Y-43893732D01*
X154610799Y-43908347D01*
X154628977Y-43924823D01*
X154645453Y-43943001D01*
X154660068Y-43962707D01*
X154672680Y-43983750D01*
X154683170Y-44005929D01*
X154691435Y-44029028D01*
X154697396Y-44052827D01*
X154700996Y-44077095D01*
X154702200Y-44101599D01*
X154702200Y-45001601D01*
X154700996Y-45026105D01*
X154697396Y-45050373D01*
X154691435Y-45074172D01*
X154683170Y-45097271D01*
X154672680Y-45119450D01*
X154660068Y-45140493D01*
X154645453Y-45160199D01*
X154628977Y-45178377D01*
X154610799Y-45194853D01*
X154591093Y-45209468D01*
X154570050Y-45222080D01*
X154547871Y-45232570D01*
X154524772Y-45240835D01*
X154500973Y-45246796D01*
X154476705Y-45250396D01*
X154452201Y-45251600D01*
X153802199Y-45251600D01*
X153777695Y-45250396D01*
X153753427Y-45246796D01*
X153729628Y-45240835D01*
X153706529Y-45232570D01*
X153684350Y-45222080D01*
X153663307Y-45209468D01*
X153643601Y-45194853D01*
X153625423Y-45178377D01*
X153608947Y-45160199D01*
X153594332Y-45140493D01*
X153581720Y-45119450D01*
X153571230Y-45097271D01*
X153562965Y-45074172D01*
X153557004Y-45050373D01*
X153553404Y-45026105D01*
X153552200Y-45001601D01*
X153552200Y-44101599D01*
X153553404Y-44077095D01*
X153557004Y-44052827D01*
X153562965Y-44029028D01*
X153571230Y-44005929D01*
X153581720Y-43983750D01*
X153594332Y-43962707D01*
X153608947Y-43943001D01*
X153625423Y-43924823D01*
X153643601Y-43908347D01*
X153663307Y-43893732D01*
X153684350Y-43881120D01*
X153706529Y-43870630D01*
X153729628Y-43862365D01*
X153753427Y-43856404D01*
X153777695Y-43852804D01*
X153802199Y-43851600D01*
X154452201Y-43851600D01*
X154476705Y-43852804D01*
X154476705Y-43852804D01*
G37*
D11*
X154127200Y-44551600D03*
D10*
G36*
X143857505Y-53511804D02*
G01*
X143881773Y-53515404D01*
X143905572Y-53521365D01*
X143928671Y-53529630D01*
X143950850Y-53540120D01*
X143971893Y-53552732D01*
X143991599Y-53567347D01*
X144009777Y-53583823D01*
X144026253Y-53602001D01*
X144040868Y-53621707D01*
X144053480Y-53642750D01*
X144063970Y-53664929D01*
X144072235Y-53688028D01*
X144078196Y-53711827D01*
X144081796Y-53736095D01*
X144083000Y-53760599D01*
X144083000Y-54410601D01*
X144081796Y-54435105D01*
X144078196Y-54459373D01*
X144072235Y-54483172D01*
X144063970Y-54506271D01*
X144053480Y-54528450D01*
X144040868Y-54549493D01*
X144026253Y-54569199D01*
X144009777Y-54587377D01*
X143991599Y-54603853D01*
X143971893Y-54618468D01*
X143950850Y-54631080D01*
X143928671Y-54641570D01*
X143905572Y-54649835D01*
X143881773Y-54655796D01*
X143857505Y-54659396D01*
X143833001Y-54660600D01*
X142932999Y-54660600D01*
X142908495Y-54659396D01*
X142884227Y-54655796D01*
X142860428Y-54649835D01*
X142837329Y-54641570D01*
X142815150Y-54631080D01*
X142794107Y-54618468D01*
X142774401Y-54603853D01*
X142756223Y-54587377D01*
X142739747Y-54569199D01*
X142725132Y-54549493D01*
X142712520Y-54528450D01*
X142702030Y-54506271D01*
X142693765Y-54483172D01*
X142687804Y-54459373D01*
X142684204Y-54435105D01*
X142683000Y-54410601D01*
X142683000Y-53760599D01*
X142684204Y-53736095D01*
X142687804Y-53711827D01*
X142693765Y-53688028D01*
X142702030Y-53664929D01*
X142712520Y-53642750D01*
X142725132Y-53621707D01*
X142739747Y-53602001D01*
X142756223Y-53583823D01*
X142774401Y-53567347D01*
X142794107Y-53552732D01*
X142815150Y-53540120D01*
X142837329Y-53529630D01*
X142860428Y-53521365D01*
X142884227Y-53515404D01*
X142908495Y-53511804D01*
X142932999Y-53510600D01*
X143833001Y-53510600D01*
X143857505Y-53511804D01*
X143857505Y-53511804D01*
G37*
D11*
X143383000Y-54085600D03*
D10*
G36*
X143857505Y-51461804D02*
G01*
X143881773Y-51465404D01*
X143905572Y-51471365D01*
X143928671Y-51479630D01*
X143950850Y-51490120D01*
X143971893Y-51502732D01*
X143991599Y-51517347D01*
X144009777Y-51533823D01*
X144026253Y-51552001D01*
X144040868Y-51571707D01*
X144053480Y-51592750D01*
X144063970Y-51614929D01*
X144072235Y-51638028D01*
X144078196Y-51661827D01*
X144081796Y-51686095D01*
X144083000Y-51710599D01*
X144083000Y-52360601D01*
X144081796Y-52385105D01*
X144078196Y-52409373D01*
X144072235Y-52433172D01*
X144063970Y-52456271D01*
X144053480Y-52478450D01*
X144040868Y-52499493D01*
X144026253Y-52519199D01*
X144009777Y-52537377D01*
X143991599Y-52553853D01*
X143971893Y-52568468D01*
X143950850Y-52581080D01*
X143928671Y-52591570D01*
X143905572Y-52599835D01*
X143881773Y-52605796D01*
X143857505Y-52609396D01*
X143833001Y-52610600D01*
X142932999Y-52610600D01*
X142908495Y-52609396D01*
X142884227Y-52605796D01*
X142860428Y-52599835D01*
X142837329Y-52591570D01*
X142815150Y-52581080D01*
X142794107Y-52568468D01*
X142774401Y-52553853D01*
X142756223Y-52537377D01*
X142739747Y-52519199D01*
X142725132Y-52499493D01*
X142712520Y-52478450D01*
X142702030Y-52456271D01*
X142693765Y-52433172D01*
X142687804Y-52409373D01*
X142684204Y-52385105D01*
X142683000Y-52360601D01*
X142683000Y-51710599D01*
X142684204Y-51686095D01*
X142687804Y-51661827D01*
X142693765Y-51638028D01*
X142702030Y-51614929D01*
X142712520Y-51592750D01*
X142725132Y-51571707D01*
X142739747Y-51552001D01*
X142756223Y-51533823D01*
X142774401Y-51517347D01*
X142794107Y-51502732D01*
X142815150Y-51490120D01*
X142837329Y-51479630D01*
X142860428Y-51471365D01*
X142884227Y-51465404D01*
X142908495Y-51461804D01*
X142932999Y-51460600D01*
X143833001Y-51460600D01*
X143857505Y-51461804D01*
X143857505Y-51461804D01*
G37*
D11*
X143383000Y-52035600D03*
D10*
G36*
X143806705Y-66021304D02*
G01*
X143830973Y-66024904D01*
X143854772Y-66030865D01*
X143877871Y-66039130D01*
X143900050Y-66049620D01*
X143921093Y-66062232D01*
X143940799Y-66076847D01*
X143958977Y-66093323D01*
X143975453Y-66111501D01*
X143990068Y-66131207D01*
X144002680Y-66152250D01*
X144013170Y-66174429D01*
X144021435Y-66197528D01*
X144027396Y-66221327D01*
X144030996Y-66245595D01*
X144032200Y-66270099D01*
X144032200Y-66920101D01*
X144030996Y-66944605D01*
X144027396Y-66968873D01*
X144021435Y-66992672D01*
X144013170Y-67015771D01*
X144002680Y-67037950D01*
X143990068Y-67058993D01*
X143975453Y-67078699D01*
X143958977Y-67096877D01*
X143940799Y-67113353D01*
X143921093Y-67127968D01*
X143900050Y-67140580D01*
X143877871Y-67151070D01*
X143854772Y-67159335D01*
X143830973Y-67165296D01*
X143806705Y-67168896D01*
X143782201Y-67170100D01*
X142882199Y-67170100D01*
X142857695Y-67168896D01*
X142833427Y-67165296D01*
X142809628Y-67159335D01*
X142786529Y-67151070D01*
X142764350Y-67140580D01*
X142743307Y-67127968D01*
X142723601Y-67113353D01*
X142705423Y-67096877D01*
X142688947Y-67078699D01*
X142674332Y-67058993D01*
X142661720Y-67037950D01*
X142651230Y-67015771D01*
X142642965Y-66992672D01*
X142637004Y-66968873D01*
X142633404Y-66944605D01*
X142632200Y-66920101D01*
X142632200Y-66270099D01*
X142633404Y-66245595D01*
X142637004Y-66221327D01*
X142642965Y-66197528D01*
X142651230Y-66174429D01*
X142661720Y-66152250D01*
X142674332Y-66131207D01*
X142688947Y-66111501D01*
X142705423Y-66093323D01*
X142723601Y-66076847D01*
X142743307Y-66062232D01*
X142764350Y-66049620D01*
X142786529Y-66039130D01*
X142809628Y-66030865D01*
X142833427Y-66024904D01*
X142857695Y-66021304D01*
X142882199Y-66020100D01*
X143782201Y-66020100D01*
X143806705Y-66021304D01*
X143806705Y-66021304D01*
G37*
D11*
X143332200Y-66595100D03*
D10*
G36*
X143806705Y-63971304D02*
G01*
X143830973Y-63974904D01*
X143854772Y-63980865D01*
X143877871Y-63989130D01*
X143900050Y-63999620D01*
X143921093Y-64012232D01*
X143940799Y-64026847D01*
X143958977Y-64043323D01*
X143975453Y-64061501D01*
X143990068Y-64081207D01*
X144002680Y-64102250D01*
X144013170Y-64124429D01*
X144021435Y-64147528D01*
X144027396Y-64171327D01*
X144030996Y-64195595D01*
X144032200Y-64220099D01*
X144032200Y-64870101D01*
X144030996Y-64894605D01*
X144027396Y-64918873D01*
X144021435Y-64942672D01*
X144013170Y-64965771D01*
X144002680Y-64987950D01*
X143990068Y-65008993D01*
X143975453Y-65028699D01*
X143958977Y-65046877D01*
X143940799Y-65063353D01*
X143921093Y-65077968D01*
X143900050Y-65090580D01*
X143877871Y-65101070D01*
X143854772Y-65109335D01*
X143830973Y-65115296D01*
X143806705Y-65118896D01*
X143782201Y-65120100D01*
X142882199Y-65120100D01*
X142857695Y-65118896D01*
X142833427Y-65115296D01*
X142809628Y-65109335D01*
X142786529Y-65101070D01*
X142764350Y-65090580D01*
X142743307Y-65077968D01*
X142723601Y-65063353D01*
X142705423Y-65046877D01*
X142688947Y-65028699D01*
X142674332Y-65008993D01*
X142661720Y-64987950D01*
X142651230Y-64965771D01*
X142642965Y-64942672D01*
X142637004Y-64918873D01*
X142633404Y-64894605D01*
X142632200Y-64870101D01*
X142632200Y-64220099D01*
X142633404Y-64195595D01*
X142637004Y-64171327D01*
X142642965Y-64147528D01*
X142651230Y-64124429D01*
X142661720Y-64102250D01*
X142674332Y-64081207D01*
X142688947Y-64061501D01*
X142705423Y-64043323D01*
X142723601Y-64026847D01*
X142743307Y-64012232D01*
X142764350Y-63999620D01*
X142786529Y-63989130D01*
X142809628Y-63980865D01*
X142833427Y-63974904D01*
X142857695Y-63971304D01*
X142882199Y-63970100D01*
X143782201Y-63970100D01*
X143806705Y-63971304D01*
X143806705Y-63971304D01*
G37*
D11*
X143332200Y-64545100D03*
D15*
X153111200Y-48599600D03*
X152161200Y-46599600D03*
X154061200Y-46599600D03*
M02*
