M48
; DRILL file {KiCad 5.1.4} date Mo 11 Nov 2019 17:46:07 CET
; FORMAT={-:-/ absolute / metric / decimal}
; #@! TF.CreationDate,2019-11-11T17:46:07+01:00
; #@! TF.GenerationSoftware,Kicad,Pcbnew,5.1.4
; #@! TF.FileFunction,Plated,1,2,PTH
FMAT,2
METRIC
T1C0.400
T2C0.500
T3C0.800
T4C1.000
T5C1.200
T6C1.300
T7C1.520
T8C2.000
T9C3.000
%
G90
G05
T1
X149.454Y-46.551
X151.384Y-65.989
X152.629Y-64.846
X171.562Y-85.09
X175.26Y-92.964
X175.768Y-93.98
X176.276Y-92.964
T2
X135.926Y-40.64
X136.585Y-39.049
X136.585Y-42.231
X138.176Y-38.39
X138.176Y-42.89
X139.767Y-39.049
X139.767Y-42.231
X140.426Y-40.64
X135.636Y-98.552
X136.295Y-96.961
X136.295Y-100.143
X137.886Y-96.302
X137.886Y-100.802
X139.477Y-96.961
X139.477Y-100.143
X140.136Y-98.552
X203.236Y-40.326
X203.895Y-38.735
X203.895Y-41.917
X205.486Y-38.076
X205.486Y-42.576
X207.077Y-38.735
X207.077Y-41.917
X207.736Y-40.326
X203.236Y-98.679
X203.895Y-97.088
X203.895Y-100.27
X205.486Y-96.429
X205.486Y-100.929
X207.077Y-97.088
X207.077Y-100.27
X207.736Y-98.679
T3
X167.513Y-44.323
X167.513Y-46.863
X167.513Y-49.403
X167.513Y-51.943
X167.513Y-54.483
X167.513Y-57.023
X167.513Y-59.563
X167.513Y-62.103
X167.513Y-64.643
X175.133Y-44.323
X175.133Y-46.863
X175.133Y-49.403
X175.133Y-51.943
X175.133Y-54.483
X175.133Y-57.023
X175.133Y-59.563
X175.133Y-62.103
X175.133Y-64.643
X147.13Y-40.386
X147.13Y-42.926
X147.13Y-45.466
X147.13Y-48.006
X147.13Y-50.546
X147.13Y-53.086
X147.13Y-55.626
X147.13Y-58.166
X147.13Y-60.706
X147.13Y-63.246
X147.13Y-65.786
X147.13Y-68.326
X147.13Y-70.866
X147.13Y-73.406
X147.13Y-75.946
X162.369Y-40.386
X162.369Y-42.926
X162.369Y-45.466
X162.369Y-48.006
X162.369Y-50.546
X162.369Y-53.086
X162.369Y-55.626
X162.369Y-58.166
X162.369Y-60.706
X162.369Y-63.246
X162.369Y-65.786
X162.369Y-68.326
X162.369Y-70.866
X162.369Y-73.406
X162.369Y-75.946
T4
X166.116Y-38.608
X173.482Y-38.608
X182.798Y-88.03
X182.798Y-100.03
X182.798Y-55.518
X182.798Y-67.518
X169.672Y-38.608
X143.424Y-87.651
X143.424Y-90.191
X143.424Y-92.731
X143.424Y-95.271
X177.292Y-38.608
X166.645Y-76.578
X169.185Y-76.578
X171.725Y-76.578
X174.265Y-76.578
X182.798Y-71.774
X182.798Y-83.774
X182.798Y-39.262
X182.798Y-51.262
T5
X137.922Y-88.087
X137.922Y-91.587
X137.986Y-61.023
X137.986Y-64.523
X137.986Y-68.023
X137.922Y-75.895
X137.922Y-79.395
X137.922Y-82.895
X138.024Y-48.514
X138.024Y-52.014
X138.024Y-55.514
T6
X180.848Y-77.724
X194.998Y-83.774
X195.048Y-71.724
X180.848Y-45.212
X194.998Y-51.262
X195.048Y-39.212
X180.848Y-93.98
X194.998Y-100.03
X195.048Y-87.98
X180.848Y-61.468
X194.998Y-67.518
X195.048Y-55.468
T7
X205.537Y-46.304
X205.537Y-51.384
X205.435Y-87.909
X205.435Y-92.989
X205.486Y-56.972
X205.486Y-62.052
T9
X138.176Y-40.64
X137.886Y-98.552
X205.486Y-40.326
X205.486Y-98.679
T8
G00X206.045Y-72.38
M15
G01X206.045Y-68.38
M16
G05
G00X206.045Y-81.68
M15
G01X206.045Y-77.68
M16
G05
T0
M30
